<mxfile host="app.diagrams.net" modified="2021-01-07T18:42:20.073Z" agent="5.0 (Windows NT 10.0; Win64; x64) AppleWebKit/537.36 (KHTML, like Gecko) Chrome/87.0.4280.88 Safari/537.36" etag="bCGkkrHKNyhAyXhR4ZJX" version="14.1.8" type="github">
  <diagram id="C5RBs43oDa-KdzZeNtuy" name="Page-1">
    <mxGraphModel dx="1745" dy="934" grid="1" gridSize="10" guides="1" tooltips="1" connect="1" arrows="1" fold="1" page="1" pageScale="1" pageWidth="827" pageHeight="1169" math="0" shadow="0">
      <root>
        <mxCell id="WIyWlLk6GJQsqaUBKTNV-0" />
        <mxCell id="WIyWlLk6GJQsqaUBKTNV-1" parent="WIyWlLk6GJQsqaUBKTNV-0" />
        <mxCell id="TMaaybb_ajbuhBKk-Kvd-0" value="&lt;p style=&quot;margin: 0px ; margin-top: 4px ; text-align: center&quot;&gt;&lt;i&gt;&amp;lt;&amp;lt;Interface&amp;gt;&amp;gt;&lt;/i&gt;&lt;br&gt;&lt;b&gt;Move&lt;/b&gt;&lt;/p&gt;&lt;hr size=&quot;1&quot;&gt;&lt;p style=&quot;margin: 0px ; margin-left: 4px&quot;&gt;&lt;span&gt;+step(Tunnel tunnel):void&lt;/span&gt;&lt;br&gt;&lt;/p&gt;" style="verticalAlign=top;align=left;overflow=fill;fontSize=12;fontFamily=Helvetica;html=1;" vertex="1" parent="WIyWlLk6GJQsqaUBKTNV-1">
          <mxGeometry x="1090" y="10" width="190" height="90" as="geometry" />
        </mxCell>
        <mxCell id="TMaaybb_ajbuhBKk-Kvd-1" value="&lt;p style=&quot;margin: 0px ; margin-top: 4px ; text-align: center&quot;&gt;&lt;i&gt;&amp;lt;&amp;lt;Interface&amp;gt;&amp;gt;&lt;/i&gt;&lt;br&gt;&lt;b&gt;SaySth&lt;/b&gt;&lt;/p&gt;&lt;hr size=&quot;1&quot;&gt;&lt;p style=&quot;margin: 0px ; margin-left: 4px&quot;&gt;+saySth():void&lt;/p&gt;" style="verticalAlign=top;align=left;overflow=fill;fontSize=12;fontFamily=Helvetica;html=1;" vertex="1" parent="WIyWlLk6GJQsqaUBKTNV-1">
          <mxGeometry x="800" y="10" width="190" height="80" as="geometry" />
        </mxCell>
        <mxCell id="TMaaybb_ajbuhBKk-Kvd-4" value="&lt;p style=&quot;margin: 0px ; margin-top: 4px ; text-align: center&quot;&gt;&lt;b&gt;Leader&lt;/b&gt;&lt;/p&gt;&lt;hr size=&quot;1&quot;&gt;&lt;p style=&quot;margin: 0px ; margin-left: 4px&quot;&gt;+ field: Type&lt;/p&gt;&lt;hr size=&quot;1&quot;&gt;&lt;p style=&quot;margin: 0px ; margin-left: 4px&quot;&gt;+ method(): Type&lt;/p&gt;" style="verticalAlign=top;align=left;overflow=fill;fontSize=12;fontFamily=Helvetica;html=1;" vertex="1" parent="WIyWlLk6GJQsqaUBKTNV-1">
          <mxGeometry x="530" y="320" width="160" height="90" as="geometry" />
        </mxCell>
        <mxCell id="TMaaybb_ajbuhBKk-Kvd-16" value="&lt;p style=&quot;margin: 0px ; margin-top: 4px ; text-align: center&quot;&gt;&lt;b&gt;Tunnel&lt;/b&gt;&lt;/p&gt;&lt;hr size=&quot;1&quot;&gt;&lt;p style=&quot;margin: 0px ; margin-left: 4px&quot;&gt;+ sizeTunnel: double&lt;/p&gt;&lt;hr size=&quot;1&quot;&gt;&lt;p style=&quot;margin: 0px ; margin-left: 4px&quot;&gt;+ depict(long r): void&lt;/p&gt;&lt;p style=&quot;margin: 0px ; margin-left: 4px&quot;&gt;+ describe(): void&lt;/p&gt;&lt;p style=&quot;margin: 0px ; margin-left: 4px&quot;&gt;+ getHeight(): double&lt;/p&gt;&lt;p style=&quot;margin: 0px ; margin-left: 4px&quot;&gt;+ getSize(): double&lt;/p&gt;&lt;p style=&quot;margin: 0px ; margin-left: 4px&quot;&gt;+ getWidth(): double&lt;/p&gt;&lt;p style=&quot;margin: 0px ; margin-left: 4px&quot;&gt;+ setSize(double s): void&lt;/p&gt;&lt;p style=&quot;margin: 0px ; margin-left: 4px&quot;&gt;&lt;br&gt;&lt;/p&gt;" style="verticalAlign=top;align=left;overflow=fill;fontSize=12;fontFamily=Helvetica;html=1;" vertex="1" parent="WIyWlLk6GJQsqaUBKTNV-1">
          <mxGeometry x="1140" y="640" width="160" height="170" as="geometry" />
        </mxCell>
        <mxCell id="TMaaybb_ajbuhBKk-Kvd-17" value="&lt;p style=&quot;margin: 0px ; margin-top: 4px ; text-align: center&quot;&gt;&lt;b&gt;SideGallery&lt;/b&gt;&lt;/p&gt;&lt;hr size=&quot;1&quot;&gt;&lt;p style=&quot;margin: 0px ; margin-left: 4px&quot;&gt;# x1: double&lt;br style=&quot;padding: 0px ; margin: 0px&quot;&gt;# x2: double&lt;br style=&quot;padding: 0px ; margin: 0px&quot;&gt;# y: double&lt;br style=&quot;padding: 0px ; margin: 0px&quot;&gt;+ type: String&lt;br&gt;&lt;/p&gt;&lt;hr size=&quot;1&quot;&gt;&lt;p style=&quot;margin: 0px ; margin-left: 4px&quot;&gt;+ describe(): void&lt;/p&gt;&lt;p style=&quot;margin: 0px ; margin-left: 4px&quot;&gt;+ hetheight(): double&lt;/p&gt;&lt;p style=&quot;margin: 0px ; margin-left: 4px&quot;&gt;+ getType: String&lt;/p&gt;&lt;p style=&quot;margin: 0px ; margin-left: 4px&quot;&gt;+getWidth(): double&lt;/p&gt;&lt;p style=&quot;margin: 0px ; margin-left: 4px&quot;&gt;+getX(): double&lt;/p&gt;&lt;p style=&quot;margin: 0px ; margin-left: 4px&quot;&gt;+getY(): double&lt;/p&gt;&lt;p style=&quot;margin: 0px ; margin-left: 4px&quot;&gt;+setXY(double x1, double y): void&lt;/p&gt;" style="verticalAlign=top;align=left;overflow=fill;fontSize=12;fontFamily=Helvetica;html=1;" vertex="1" parent="WIyWlLk6GJQsqaUBKTNV-1">
          <mxGeometry x="1640" y="640" width="200" height="200" as="geometry" />
        </mxCell>
        <mxCell id="TMaaybb_ajbuhBKk-Kvd-28" value="&amp;lt;&amp;lt;enumeration&amp;gt;&amp;gt;&lt;br&gt;&lt;span style=&quot;background-color: rgb(255 , 255 , 255) ; color: rgb(53 , 56 , 51) ; font-family: &amp;#34;dejavu sans mono&amp;#34; , monospace ; font-size: 14px ; font-weight: bold ; text-align: left&quot;&gt;DayOfWeek&lt;/span&gt;" style="swimlane;fontStyle=0;align=center;verticalAlign=top;childLayout=stackLayout;horizontal=1;startSize=40;horizontalStack=0;resizeParent=1;resizeParentMax=0;resizeLast=0;collapsible=0;marginBottom=0;html=1;" vertex="1" parent="WIyWlLk6GJQsqaUBKTNV-1">
          <mxGeometry x="2280" y="930" width="140" height="160" as="geometry" />
        </mxCell>
        <mxCell id="TMaaybb_ajbuhBKk-Kvd-29" value="MONDAY&lt;br&gt;TUESDAY&lt;br&gt;WEDNESDAY&lt;br&gt;THURSDAY&lt;br&gt;FRIDAY&lt;br&gt;SATURDAY&lt;br&gt;SUNDAY" style="text;html=1;strokeColor=none;fillColor=none;align=left;verticalAlign=middle;spacingLeft=4;spacingRight=4;overflow=hidden;rotatable=0;points=[[0,0.5],[1,0.5]];portConstraint=eastwest;" vertex="1" parent="TMaaybb_ajbuhBKk-Kvd-28">
          <mxGeometry y="40" width="140" height="120" as="geometry" />
        </mxCell>
        <mxCell id="TMaaybb_ajbuhBKk-Kvd-30" value="Temperature" style="swimlane;fontStyle=1;align=center;verticalAlign=top;childLayout=stackLayout;horizontal=1;startSize=26;horizontalStack=0;resizeParent=1;resizeParentMax=0;resizeLast=0;collapsible=1;marginBottom=0;" vertex="1" parent="WIyWlLk6GJQsqaUBKTNV-1">
          <mxGeometry x="1980" y="155" width="180" height="120" as="geometry" />
        </mxCell>
        <mxCell id="TMaaybb_ajbuhBKk-Kvd-31" value="+ degree: int" style="text;strokeColor=none;fillColor=none;align=left;verticalAlign=top;spacingLeft=4;spacingRight=4;overflow=hidden;rotatable=0;points=[[0,0.5],[1,0.5]];portConstraint=eastwest;" vertex="1" parent="TMaaybb_ajbuhBKk-Kvd-30">
          <mxGeometry y="26" width="180" height="26" as="geometry" />
        </mxCell>
        <mxCell id="TMaaybb_ajbuhBKk-Kvd-32" value="" style="line;strokeWidth=1;fillColor=none;align=left;verticalAlign=middle;spacingTop=-1;spacingLeft=3;spacingRight=3;rotatable=0;labelPosition=right;points=[];portConstraint=eastwest;" vertex="1" parent="TMaaybb_ajbuhBKk-Kvd-30">
          <mxGeometry y="52" width="180" height="8" as="geometry" />
        </mxCell>
        <mxCell id="TMaaybb_ajbuhBKk-Kvd-33" value="+ getDegree(): int&#xa;+ increaseDegree(long r): int&#xa;+ setDegree(int d): void" style="text;strokeColor=none;fillColor=none;align=left;verticalAlign=top;spacingLeft=4;spacingRight=4;overflow=hidden;rotatable=0;points=[[0,0.5],[1,0.5]];portConstraint=eastwest;" vertex="1" parent="TMaaybb_ajbuhBKk-Kvd-30">
          <mxGeometry y="60" width="180" height="60" as="geometry" />
        </mxCell>
        <mxCell id="TMaaybb_ajbuhBKk-Kvd-34" value="Time" style="swimlane;fontStyle=1;align=center;verticalAlign=top;childLayout=stackLayout;horizontal=1;startSize=26;horizontalStack=0;resizeParent=1;resizeParentMax=0;resizeLast=0;collapsible=1;marginBottom=0;" vertex="1" parent="WIyWlLk6GJQsqaUBKTNV-1">
          <mxGeometry x="1980" y="390" width="160" height="120" as="geometry" />
        </mxCell>
        <mxCell id="TMaaybb_ajbuhBKk-Kvd-35" value="" style="line;strokeWidth=1;fillColor=none;align=left;verticalAlign=middle;spacingTop=-1;spacingLeft=3;spacingRight=3;rotatable=0;labelPosition=right;points=[];portConstraint=eastwest;" vertex="1" parent="TMaaybb_ajbuhBKk-Kvd-34">
          <mxGeometry y="26" width="160" height="54" as="geometry" />
        </mxCell>
        <mxCell id="TMaaybb_ajbuhBKk-Kvd-36" value="+ mainn(long start): long&#xa;+ running(long time): long" style="text;strokeColor=none;fillColor=none;align=left;verticalAlign=top;spacingLeft=4;spacingRight=4;overflow=hidden;rotatable=0;points=[[0,0.5],[1,0.5]];portConstraint=eastwest;" vertex="1" parent="TMaaybb_ajbuhBKk-Kvd-34">
          <mxGeometry y="80" width="160" height="40" as="geometry" />
        </mxCell>
        <mxCell id="TMaaybb_ajbuhBKk-Kvd-37" value="+ r: long" style="text;html=1;align=center;verticalAlign=middle;resizable=0;points=[];autosize=1;" vertex="1" parent="WIyWlLk6GJQsqaUBKTNV-1">
          <mxGeometry x="1980" y="420" width="60" height="20" as="geometry" />
        </mxCell>
        <mxCell id="TMaaybb_ajbuhBKk-Kvd-38" value="Sound" style="swimlane;fontStyle=1;align=center;verticalAlign=top;childLayout=stackLayout;horizontal=1;startSize=26;horizontalStack=0;resizeParent=1;resizeParentMax=0;resizeLast=0;collapsible=1;marginBottom=0;" vertex="1" parent="WIyWlLk6GJQsqaUBKTNV-1">
          <mxGeometry x="1980" y="558" width="160" height="82" as="geometry" />
        </mxCell>
        <mxCell id="TMaaybb_ajbuhBKk-Kvd-39" value="+ soundClothes(): void&#xa;+ soundStalakt(): void&#xa;+ soundTunnel(): void" style="text;strokeColor=none;fillColor=none;align=left;verticalAlign=top;spacingLeft=4;spacingRight=4;overflow=hidden;rotatable=0;points=[[0,0.5],[1,0.5]];portConstraint=eastwest;" vertex="1" parent="TMaaybb_ajbuhBKk-Kvd-38">
          <mxGeometry y="26" width="160" height="56" as="geometry" />
        </mxCell>
        <mxCell id="TMaaybb_ajbuhBKk-Kvd-40" value="Smell" style="swimlane;fontStyle=1;align=center;verticalAlign=top;childLayout=stackLayout;horizontal=1;startSize=26;horizontalStack=0;resizeParent=1;resizeParentMax=0;resizeLast=0;collapsible=1;marginBottom=0;" vertex="1" parent="WIyWlLk6GJQsqaUBKTNV-1">
          <mxGeometry x="1980" y="700" width="310" height="90" as="geometry" />
        </mxCell>
        <mxCell id="TMaaybb_ajbuhBKk-Kvd-41" value="" style="line;strokeWidth=1;fillColor=none;align=left;verticalAlign=middle;spacingTop=-1;spacingLeft=3;spacingRight=3;rotatable=0;labelPosition=right;points=[];portConstraint=eastwest;" vertex="1" parent="TMaaybb_ajbuhBKk-Kvd-40">
          <mxGeometry y="26" width="310" height="8" as="geometry" />
        </mxCell>
        <mxCell id="TMaaybb_ajbuhBKk-Kvd-42" value="+ smellBrillGall(): void&#xa;+ smellStoneGall(): void&#xa;+ smellTunnel(long r): void" style="text;strokeColor=none;fillColor=none;align=left;verticalAlign=top;spacingLeft=4;spacingRight=4;overflow=hidden;rotatable=0;points=[[0,0.5],[1,0.5]];portConstraint=eastwest;" vertex="1" parent="TMaaybb_ajbuhBKk-Kvd-40">
          <mxGeometry y="34" width="310" height="56" as="geometry" />
        </mxCell>
        <mxCell id="TMaaybb_ajbuhBKk-Kvd-43" value="Main" style="swimlane;fontStyle=1;align=center;verticalAlign=top;childLayout=stackLayout;horizontal=1;startSize=26;horizontalStack=0;resizeParent=1;resizeParentMax=0;resizeLast=0;collapsible=1;marginBottom=0;" vertex="1" parent="WIyWlLk6GJQsqaUBKTNV-1">
          <mxGeometry x="80" y="110" width="190" height="60" as="geometry" />
        </mxCell>
        <mxCell id="TMaaybb_ajbuhBKk-Kvd-44" value="" style="line;strokeWidth=1;fillColor=none;align=left;verticalAlign=middle;spacingTop=-1;spacingLeft=3;spacingRight=3;rotatable=0;labelPosition=right;points=[];portConstraint=eastwest;" vertex="1" parent="TMaaybb_ajbuhBKk-Kvd-43">
          <mxGeometry y="26" width="190" height="8" as="geometry" />
        </mxCell>
        <mxCell id="TMaaybb_ajbuhBKk-Kvd-45" value="+ main(String[] args): static void" style="text;strokeColor=none;fillColor=none;align=left;verticalAlign=top;spacingLeft=4;spacingRight=4;overflow=hidden;rotatable=0;points=[[0,0.5],[1,0.5]];portConstraint=eastwest;" vertex="1" parent="TMaaybb_ajbuhBKk-Kvd-43">
          <mxGeometry y="34" width="190" height="26" as="geometry" />
        </mxCell>
        <mxCell id="TMaaybb_ajbuhBKk-Kvd-58" value="Abstract Class&#xa;Clothes" style="swimlane;fontStyle=1;align=center;verticalAlign=top;childLayout=stackLayout;horizontal=1;startSize=38;horizontalStack=0;resizeParent=1;resizeParentMax=0;resizeLast=0;collapsible=1;marginBottom=0;" vertex="1" parent="WIyWlLk6GJQsqaUBKTNV-1">
          <mxGeometry x="100" y="640" width="180" height="240" as="geometry" />
        </mxCell>
        <mxCell id="TMaaybb_ajbuhBKk-Kvd-59" value="# color: String&#xa;#material: String&#xa;# size: String&#xa;# warmEffect(): int" style="text;strokeColor=none;fillColor=none;align=left;verticalAlign=top;spacingLeft=4;spacingRight=4;overflow=hidden;rotatable=0;points=[[0,0.5],[1,0.5]];portConstraint=eastwest;" vertex="1" parent="TMaaybb_ajbuhBKk-Kvd-58">
          <mxGeometry y="38" width="180" height="62" as="geometry" />
        </mxCell>
        <mxCell id="TMaaybb_ajbuhBKk-Kvd-60" value="" style="line;strokeWidth=1;fillColor=none;align=left;verticalAlign=middle;spacingTop=-1;spacingLeft=3;spacingRight=3;rotatable=0;labelPosition=right;points=[];portConstraint=eastwest;" vertex="1" parent="TMaaybb_ajbuhBKk-Kvd-58">
          <mxGeometry y="100" width="180" height="8" as="geometry" />
        </mxCell>
        <mxCell id="TMaaybb_ajbuhBKk-Kvd-61" value="+ describe(): abstract void&#xa;+ equals(Object obj): boolean&#xa;+ getColor(): String&#xa;+ getmaterial(): String&#xa;+ getSize(): String&#xa;+ getWarmEffect(): int&#xa;+ hashCode(): int&#xa;+ setWarmEffect(int s): void" style="text;strokeColor=none;fillColor=none;align=left;verticalAlign=top;spacingLeft=4;spacingRight=4;overflow=hidden;rotatable=0;points=[[0,0.5],[1,0.5]];portConstraint=eastwest;" vertex="1" parent="TMaaybb_ajbuhBKk-Kvd-58">
          <mxGeometry y="108" width="180" height="132" as="geometry" />
        </mxCell>
        <mxCell id="TMaaybb_ajbuhBKk-Kvd-63" value="Coat" style="swimlane;fontStyle=1;align=center;verticalAlign=top;childLayout=stackLayout;horizontal=1;startSize=26;horizontalStack=0;resizeParent=1;resizeParentMax=0;resizeLast=0;collapsible=1;marginBottom=0;" vertex="1" parent="WIyWlLk6GJQsqaUBKTNV-1">
          <mxGeometry x="10" y="980" width="280" height="90" as="geometry" />
        </mxCell>
        <mxCell id="TMaaybb_ajbuhBKk-Kvd-64" value="" style="line;strokeWidth=1;fillColor=none;align=left;verticalAlign=middle;spacingTop=-1;spacingLeft=3;spacingRight=3;rotatable=0;labelPosition=right;points=[];portConstraint=eastwest;" vertex="1" parent="TMaaybb_ajbuhBKk-Kvd-63">
          <mxGeometry y="26" width="280" height="8" as="geometry" />
        </mxCell>
        <mxCell id="TMaaybb_ajbuhBKk-Kvd-65" value="+ describe(): void&#xa;+ fall(Temperature temp, Person pers, long r): void&#xa;+ warm(Temperature temp, long r): int" style="text;strokeColor=none;fillColor=none;align=left;verticalAlign=top;spacingLeft=4;spacingRight=4;overflow=hidden;rotatable=0;points=[[0,0.5],[1,0.5]];portConstraint=eastwest;" vertex="1" parent="TMaaybb_ajbuhBKk-Kvd-63">
          <mxGeometry y="34" width="280" height="56" as="geometry" />
        </mxCell>
        <mxCell id="TMaaybb_ajbuhBKk-Kvd-66" value="CutCoat" style="swimlane;fontStyle=1;align=center;verticalAlign=top;childLayout=stackLayout;horizontal=1;startSize=26;horizontalStack=0;resizeParent=1;resizeParentMax=0;resizeLast=0;collapsible=1;marginBottom=0;" vertex="1" parent="WIyWlLk6GJQsqaUBKTNV-1">
          <mxGeometry x="330" y="985" width="180" height="80" as="geometry" />
        </mxCell>
        <mxCell id="TMaaybb_ajbuhBKk-Kvd-67" value="" style="line;strokeWidth=1;fillColor=none;align=left;verticalAlign=middle;spacingTop=-1;spacingLeft=3;spacingRight=3;rotatable=0;labelPosition=right;points=[];portConstraint=eastwest;" vertex="1" parent="TMaaybb_ajbuhBKk-Kvd-66">
          <mxGeometry y="26" width="180" height="8" as="geometry" />
        </mxCell>
        <mxCell id="TMaaybb_ajbuhBKk-Kvd-68" value="+ describe(): void&#xa;+ toRaise(Person pers): void" style="text;strokeColor=none;fillColor=none;align=left;verticalAlign=top;spacingLeft=4;spacingRight=4;overflow=hidden;rotatable=0;points=[[0,0.5],[1,0.5]];portConstraint=eastwest;" vertex="1" parent="TMaaybb_ajbuhBKk-Kvd-66">
          <mxGeometry y="34" width="180" height="46" as="geometry" />
        </mxCell>
        <mxCell id="TMaaybb_ajbuhBKk-Kvd-69" value="Extends" style="endArrow=block;endSize=16;endFill=0;html=1;entryX=0.897;entryY=0.004;entryDx=0;entryDy=0;entryPerimeter=0;exitX=0.8;exitY=1.023;exitDx=0;exitDy=0;exitPerimeter=0;" edge="1" parent="WIyWlLk6GJQsqaUBKTNV-1" source="TMaaybb_ajbuhBKk-Kvd-61">
          <mxGeometry width="160" relative="1" as="geometry">
            <mxPoint x="380" y="894.6400000000001" as="sourcePoint" />
            <mxPoint x="380.1300000000001" y="985" as="targetPoint" />
          </mxGeometry>
        </mxCell>
        <mxCell id="TMaaybb_ajbuhBKk-Kvd-62" value="Extends" style="endArrow=block;endSize=16;endFill=0;html=1;entryX=0.5;entryY=0;entryDx=0;entryDy=0;exitX=0.2;exitY=1.023;exitDx=0;exitDy=0;exitPerimeter=0;" edge="1" parent="WIyWlLk6GJQsqaUBKTNV-1" target="TMaaybb_ajbuhBKk-Kvd-63" source="TMaaybb_ajbuhBKk-Kvd-61">
          <mxGeometry width="160" relative="1" as="geometry">
            <mxPoint x="120" y="880" as="sourcePoint" />
            <mxPoint x="280" y="880" as="targetPoint" />
            <Array as="points" />
          </mxGeometry>
        </mxCell>
        <mxCell id="TMaaybb_ajbuhBKk-Kvd-70" value="Abstract Class&#xa;Location" style="swimlane;fontStyle=1;align=center;verticalAlign=top;childLayout=stackLayout;horizontal=1;startSize=40;horizontalStack=0;resizeParent=1;resizeParentMax=0;resizeLast=0;collapsible=1;marginBottom=0;" vertex="1" parent="WIyWlLk6GJQsqaUBKTNV-1">
          <mxGeometry x="1380" y="455" width="210" height="120" as="geometry" />
        </mxCell>
        <mxCell id="TMaaybb_ajbuhBKk-Kvd-71" value="# h: double&#xa;# w: double" style="text;strokeColor=none;fillColor=none;align=left;verticalAlign=top;spacingLeft=4;spacingRight=4;overflow=hidden;rotatable=0;points=[[0,0.5],[1,0.5]];portConstraint=eastwest;" vertex="1" parent="TMaaybb_ajbuhBKk-Kvd-70">
          <mxGeometry y="40" width="210" height="40" as="geometry" />
        </mxCell>
        <mxCell id="TMaaybb_ajbuhBKk-Kvd-72" value="" style="line;strokeWidth=1;fillColor=none;align=left;verticalAlign=middle;spacingTop=-1;spacingLeft=3;spacingRight=3;rotatable=0;labelPosition=right;points=[];portConstraint=eastwest;" vertex="1" parent="TMaaybb_ajbuhBKk-Kvd-70">
          <mxGeometry y="80" width="210" height="8" as="geometry" />
        </mxCell>
        <mxCell id="TMaaybb_ajbuhBKk-Kvd-73" value="+ describe(): abstract void&#xa;" style="text;strokeColor=none;fillColor=none;align=left;verticalAlign=top;spacingLeft=4;spacingRight=4;overflow=hidden;rotatable=0;points=[[0,0.5],[1,0.5]];portConstraint=eastwest;" vertex="1" parent="TMaaybb_ajbuhBKk-Kvd-70">
          <mxGeometry y="88" width="210" height="32" as="geometry" />
        </mxCell>
        <mxCell id="TMaaybb_ajbuhBKk-Kvd-75" value="Extends" style="endArrow=block;endSize=16;endFill=0;html=1;" edge="1" parent="WIyWlLk6GJQsqaUBKTNV-1" target="TMaaybb_ajbuhBKk-Kvd-17">
          <mxGeometry width="160" relative="1" as="geometry">
            <mxPoint x="1580" y="574.9999999999999" as="sourcePoint" />
            <mxPoint x="1640" y="691.67" as="targetPoint" />
          </mxGeometry>
        </mxCell>
        <mxCell id="TMaaybb_ajbuhBKk-Kvd-74" value="Extends" style="endArrow=block;endSize=16;endFill=0;html=1;entryX=0.85;entryY=-0.011;entryDx=0;entryDy=0;entryPerimeter=0;" edge="1" parent="WIyWlLk6GJQsqaUBKTNV-1" target="TMaaybb_ajbuhBKk-Kvd-16">
          <mxGeometry width="160" relative="1" as="geometry">
            <mxPoint x="1390" y="575" as="sourcePoint" />
            <mxPoint x="1390" y="716.6700000000001" as="targetPoint" />
          </mxGeometry>
        </mxCell>
        <mxCell id="TMaaybb_ajbuhBKk-Kvd-80" value="Stone" style="swimlane;fontStyle=1;align=center;verticalAlign=top;childLayout=stackLayout;horizontal=1;startSize=26;horizontalStack=0;resizeParent=1;resizeParentMax=0;resizeLast=0;collapsible=1;marginBottom=0;" vertex="1" parent="WIyWlLk6GJQsqaUBKTNV-1">
          <mxGeometry x="1810" y="920" width="160" height="60" as="geometry" />
        </mxCell>
        <mxCell id="TMaaybb_ajbuhBKk-Kvd-81" value="" style="line;strokeWidth=1;fillColor=none;align=left;verticalAlign=middle;spacingTop=-1;spacingLeft=3;spacingRight=3;rotatable=0;labelPosition=right;points=[];portConstraint=eastwest;" vertex="1" parent="TMaaybb_ajbuhBKk-Kvd-80">
          <mxGeometry y="26" width="160" height="8" as="geometry" />
        </mxCell>
        <mxCell id="TMaaybb_ajbuhBKk-Kvd-82" value="+describe(): void" style="text;strokeColor=none;fillColor=none;align=left;verticalAlign=top;spacingLeft=4;spacingRight=4;overflow=hidden;rotatable=0;points=[[0,0.5],[1,0.5]];portConstraint=eastwest;" vertex="1" parent="TMaaybb_ajbuhBKk-Kvd-80">
          <mxGeometry y="34" width="160" height="26" as="geometry" />
        </mxCell>
        <mxCell id="TMaaybb_ajbuhBKk-Kvd-83" value="Brilliant" style="swimlane;fontStyle=1;align=center;verticalAlign=top;childLayout=stackLayout;horizontal=1;startSize=26;horizontalStack=0;resizeParent=1;resizeParentMax=0;resizeLast=0;collapsible=1;marginBottom=0;" vertex="1" parent="WIyWlLk6GJQsqaUBKTNV-1">
          <mxGeometry x="1540" y="920" width="160" height="60" as="geometry" />
        </mxCell>
        <mxCell id="TMaaybb_ajbuhBKk-Kvd-84" value="" style="line;strokeWidth=1;fillColor=none;align=left;verticalAlign=middle;spacingTop=-1;spacingLeft=3;spacingRight=3;rotatable=0;labelPosition=right;points=[];portConstraint=eastwest;" vertex="1" parent="TMaaybb_ajbuhBKk-Kvd-83">
          <mxGeometry y="26" width="160" height="8" as="geometry" />
        </mxCell>
        <mxCell id="TMaaybb_ajbuhBKk-Kvd-85" value="+ describe(): void" style="text;strokeColor=none;fillColor=none;align=left;verticalAlign=top;spacingLeft=4;spacingRight=4;overflow=hidden;rotatable=0;points=[[0,0.5],[1,0.5]];portConstraint=eastwest;" vertex="1" parent="TMaaybb_ajbuhBKk-Kvd-83">
          <mxGeometry y="34" width="160" height="26" as="geometry" />
        </mxCell>
        <mxCell id="TMaaybb_ajbuhBKk-Kvd-86" value="Extends" style="endArrow=block;endSize=16;endFill=0;html=1;entryX=0.375;entryY=0;entryDx=0;entryDy=0;entryPerimeter=0;" edge="1" parent="WIyWlLk6GJQsqaUBKTNV-1" target="TMaaybb_ajbuhBKk-Kvd-80">
          <mxGeometry width="160" relative="1" as="geometry">
            <mxPoint x="1800" y="840" as="sourcePoint" />
            <mxPoint x="1863.030303030303" y="905" as="targetPoint" />
          </mxGeometry>
        </mxCell>
        <mxCell id="TMaaybb_ajbuhBKk-Kvd-87" value="Extends" style="endArrow=block;endSize=16;endFill=0;html=1;entryX=0.294;entryY=-0.033;entryDx=0;entryDy=0;entryPerimeter=0;exitX=0.08;exitY=1.02;exitDx=0;exitDy=0;exitPerimeter=0;" edge="1" parent="WIyWlLk6GJQsqaUBKTNV-1" source="TMaaybb_ajbuhBKk-Kvd-17" target="TMaaybb_ajbuhBKk-Kvd-83">
          <mxGeometry width="160" relative="1" as="geometry">
            <mxPoint x="1694" y="840" as="sourcePoint" />
            <mxPoint x="1580" y="903.1300000000001" as="targetPoint" />
          </mxGeometry>
        </mxCell>
        <mxCell id="TMaaybb_ajbuhBKk-Kvd-88" value="Stalakt" style="swimlane;fontStyle=1;align=center;verticalAlign=top;childLayout=stackLayout;horizontal=1;startSize=26;horizontalStack=0;resizeParent=1;resizeParentMax=0;resizeLast=0;collapsible=1;marginBottom=0;" vertex="1" parent="WIyWlLk6GJQsqaUBKTNV-1">
          <mxGeometry x="90" y="440" width="160" height="100" as="geometry" />
        </mxCell>
        <mxCell id="TMaaybb_ajbuhBKk-Kvd-89" value="+ x: double" style="text;strokeColor=none;fillColor=none;align=left;verticalAlign=top;spacingLeft=4;spacingRight=4;overflow=hidden;rotatable=0;points=[[0,0.5],[1,0.5]];portConstraint=eastwest;" vertex="1" parent="TMaaybb_ajbuhBKk-Kvd-88">
          <mxGeometry y="26" width="160" height="26" as="geometry" />
        </mxCell>
        <mxCell id="TMaaybb_ajbuhBKk-Kvd-90" value="" style="line;strokeWidth=1;fillColor=none;align=left;verticalAlign=middle;spacingTop=-1;spacingLeft=3;spacingRight=3;rotatable=0;labelPosition=right;points=[];portConstraint=eastwest;" vertex="1" parent="TMaaybb_ajbuhBKk-Kvd-88">
          <mxGeometry y="52" width="160" height="8" as="geometry" />
        </mxCell>
        <mxCell id="TMaaybb_ajbuhBKk-Kvd-91" value="+ getCoord(): double;&#xa;+ setCoord(): void" style="text;strokeColor=none;fillColor=none;align=left;verticalAlign=top;spacingLeft=4;spacingRight=4;overflow=hidden;rotatable=0;points=[[0,0.5],[1,0.5]];portConstraint=eastwest;" vertex="1" parent="TMaaybb_ajbuhBKk-Kvd-88">
          <mxGeometry y="60" width="160" height="40" as="geometry" />
        </mxCell>
        <mxCell id="TMaaybb_ajbuhBKk-Kvd-92" value="Simul" style="swimlane;fontStyle=1;align=center;verticalAlign=top;childLayout=stackLayout;horizontal=1;startSize=26;horizontalStack=0;resizeParent=1;resizeParentMax=0;resizeLast=0;collapsible=1;marginBottom=0;" vertex="1" parent="WIyWlLk6GJQsqaUBKTNV-1">
          <mxGeometry x="10" y="290" width="460" height="60" as="geometry" />
        </mxCell>
        <mxCell id="TMaaybb_ajbuhBKk-Kvd-93" value="" style="line;strokeWidth=1;fillColor=none;align=left;verticalAlign=middle;spacingTop=-1;spacingLeft=3;spacingRight=3;rotatable=0;labelPosition=right;points=[];portConstraint=eastwest;" vertex="1" parent="TMaaybb_ajbuhBKk-Kvd-92">
          <mxGeometry y="26" width="460" height="8" as="geometry" />
        </mxCell>
        <mxCell id="TMaaybb_ajbuhBKk-Kvd-94" value="+ simul(Student student, Professor professor, Leader leader, Scientist scientist): void" style="text;strokeColor=none;fillColor=none;align=left;verticalAlign=top;spacingLeft=4;spacingRight=4;overflow=hidden;rotatable=0;points=[[0,0.5],[1,0.5]];portConstraint=eastwest;" vertex="1" parent="TMaaybb_ajbuhBKk-Kvd-92">
          <mxGeometry y="34" width="460" height="26" as="geometry" />
        </mxCell>
        <mxCell id="TMaaybb_ajbuhBKk-Kvd-95" value="Abstract Class&#xa;Person" style="swimlane;fontStyle=1;align=center;verticalAlign=top;childLayout=stackLayout;horizontal=1;startSize=40;horizontalStack=0;resizeParent=1;resizeParentMax=0;resizeLast=0;collapsible=1;marginBottom=0;" vertex="1" parent="WIyWlLk6GJQsqaUBKTNV-1">
          <mxGeometry x="800" y="160" width="180" height="364" as="geometry" />
        </mxCell>
        <mxCell id="TMaaybb_ajbuhBKk-Kvd-96" value="# step: double&#xa;# age: int&#xa;# type: String&#xa;# sex: String&#xa;# name: String&#xa;# pointX: String" style="text;strokeColor=none;fillColor=none;align=left;verticalAlign=top;spacingLeft=4;spacingRight=4;overflow=hidden;rotatable=0;points=[[0,0.5],[1,0.5]];portConstraint=eastwest;" vertex="1" parent="TMaaybb_ajbuhBKk-Kvd-95">
          <mxGeometry y="40" width="180" height="104" as="geometry" />
        </mxCell>
        <mxCell id="TMaaybb_ajbuhBKk-Kvd-97" value="" style="line;strokeWidth=1;fillColor=none;align=left;verticalAlign=middle;spacingTop=-1;spacingLeft=3;spacingRight=3;rotatable=0;labelPosition=right;points=[];portConstraint=eastwest;" vertex="1" parent="TMaaybb_ajbuhBKk-Kvd-95">
          <mxGeometry y="144" width="180" height="8" as="geometry" />
        </mxCell>
        <mxCell id="TMaaybb_ajbuhBKk-Kvd-98" value="+ getAge(): int&#xa;+ getName(): String&#xa;+ getSex(): String&#xa;+ getType(): String&#xa;+getX(): double&#xa;+ saySth(): void&#xa;+ step(Tunnel tunnel):void&#xa;+setAge(age): void&#xa;+ setName(name): void&#xa;+setSex(sex): void&#xa;+ setType(type):void&#xa;+ toString(): String" style="text;strokeColor=none;fillColor=none;align=left;verticalAlign=top;spacingLeft=4;spacingRight=4;overflow=hidden;rotatable=0;points=[[0,0.5],[1,0.5]];portConstraint=eastwest;" vertex="1" parent="TMaaybb_ajbuhBKk-Kvd-95">
          <mxGeometry y="152" width="180" height="212" as="geometry" />
        </mxCell>
        <mxCell id="TMaaybb_ajbuhBKk-Kvd-100" value="Extends" style="endArrow=block;endSize=16;endFill=0;html=1;entryX=1;entryY=0.25;entryDx=0;entryDy=0;" edge="1" parent="TMaaybb_ajbuhBKk-Kvd-95">
          <mxGeometry width="160" relative="1" as="geometry">
            <mxPoint y="340" as="sourcePoint" />
            <mxPoint x="-110" y="357.5" as="targetPoint" />
          </mxGeometry>
        </mxCell>
        <mxCell id="TMaaybb_ajbuhBKk-Kvd-101" value="Penguin" style="swimlane;fontStyle=1;align=center;verticalAlign=top;childLayout=stackLayout;horizontal=1;startSize=26;horizontalStack=0;resizeParent=1;resizeParentMax=0;resizeLast=0;collapsible=1;marginBottom=0;" vertex="1" parent="WIyWlLk6GJQsqaUBKTNV-1">
          <mxGeometry x="1090" y="160" width="170" height="320" as="geometry" />
        </mxCell>
        <mxCell id="TMaaybb_ajbuhBKk-Kvd-102" value="# age: int;&#xa;# color: String&#xa;# health: int&#xa;#number: int&#xa;#pointPX: double&#xa;#sex: String&#xa;#stepP: double" style="text;strokeColor=none;fillColor=none;align=left;verticalAlign=top;spacingLeft=4;spacingRight=4;overflow=hidden;rotatable=0;points=[[0,0.5],[1,0.5]];portConstraint=eastwest;" vertex="1" parent="TMaaybb_ajbuhBKk-Kvd-101">
          <mxGeometry y="26" width="170" height="104" as="geometry" />
        </mxCell>
        <mxCell id="TMaaybb_ajbuhBKk-Kvd-103" value="" style="line;strokeWidth=1;fillColor=none;align=left;verticalAlign=middle;spacingTop=-1;spacingLeft=3;spacingRight=3;rotatable=0;labelPosition=right;points=[];portConstraint=eastwest;" vertex="1" parent="TMaaybb_ajbuhBKk-Kvd-101">
          <mxGeometry y="130" width="170" height="8" as="geometry" />
        </mxCell>
        <mxCell id="TMaaybb_ajbuhBKk-Kvd-104" value="+ bump(Stalakt st): void&#xa;+ getAge(): String&#xa;+ getColor(): String&#xa;+ getHealth(): int&#xa;+ getNumber(): int&#xa;+getSex(): String&#xa;+setAge(String age): void&#xa;+setNumber(int number): void&#xa;+ setHealth(int h): void&#xa;+setName(String Name): void&#xa;+step(Tunnel tunnel): void&#xa;+ toString(): String" style="text;strokeColor=none;fillColor=none;align=left;verticalAlign=top;spacingLeft=4;spacingRight=4;overflow=hidden;rotatable=0;points=[[0,0.5],[1,0.5]];portConstraint=eastwest;" vertex="1" parent="TMaaybb_ajbuhBKk-Kvd-101">
          <mxGeometry y="138" width="170" height="182" as="geometry" />
        </mxCell>
        <mxCell id="TMaaybb_ajbuhBKk-Kvd-99" value="Extends" style="endArrow=block;endSize=16;endFill=0;html=1;entryX=0.994;entryY=0.578;entryDx=0;entryDy=0;entryPerimeter=0;exitX=0;exitY=0.292;exitDx=0;exitDy=0;exitPerimeter=0;" edge="1" parent="WIyWlLk6GJQsqaUBKTNV-1" source="TMaaybb_ajbuhBKk-Kvd-98" target="TMaaybb_ajbuhBKk-Kvd-4">
          <mxGeometry width="160" relative="1" as="geometry">
            <mxPoint x="650" y="440" as="sourcePoint" />
            <mxPoint x="810" y="440" as="targetPoint" />
          </mxGeometry>
        </mxCell>
        <mxCell id="TMaaybb_ajbuhBKk-Kvd-106" value="Extends" style="endArrow=block;endSize=16;endFill=0;html=1;entryX=1;entryY=0.5;entryDx=0;entryDy=0;" edge="1" parent="WIyWlLk6GJQsqaUBKTNV-1">
          <mxGeometry width="160" relative="1" as="geometry">
            <mxPoint x="860" y="524" as="sourcePoint" />
            <mxPoint x="760" y="725" as="targetPoint" />
          </mxGeometry>
        </mxCell>
        <mxCell id="TMaaybb_ajbuhBKk-Kvd-107" value="Extends" style="endArrow=block;endSize=16;endFill=0;html=1;entryX=0.75;entryY=0;entryDx=0;entryDy=0;" edge="1" parent="WIyWlLk6GJQsqaUBKTNV-1" target="TMaaybb_ajbuhBKk-Kvd-108">
          <mxGeometry width="160" relative="1" as="geometry">
            <mxPoint x="930" y="524" as="sourcePoint" />
            <mxPoint x="760" y="885" as="targetPoint" />
          </mxGeometry>
        </mxCell>
        <mxCell id="TMaaybb_ajbuhBKk-Kvd-108" value="Professor" style="swimlane;fontStyle=1;align=center;verticalAlign=top;childLayout=stackLayout;horizontal=1;startSize=26;horizontalStack=0;resizeParent=1;resizeParentMax=0;resizeLast=0;collapsible=1;marginBottom=0;" vertex="1" parent="WIyWlLk6GJQsqaUBKTNV-1">
          <mxGeometry x="760" y="890" width="230" height="140" as="geometry" />
        </mxCell>
        <mxCell id="TMaaybb_ajbuhBKk-Kvd-109" value="#emoState: int" style="text;strokeColor=none;fillColor=none;align=left;verticalAlign=top;spacingLeft=4;spacingRight=4;overflow=hidden;rotatable=0;points=[[0,0.5],[1,0.5]];portConstraint=eastwest;" vertex="1" parent="TMaaybb_ajbuhBKk-Kvd-108">
          <mxGeometry y="26" width="230" height="26" as="geometry" />
        </mxCell>
        <mxCell id="TMaaybb_ajbuhBKk-Kvd-110" value="" style="line;strokeWidth=1;fillColor=none;align=left;verticalAlign=middle;spacingTop=-1;spacingLeft=3;spacingRight=3;rotatable=0;labelPosition=right;points=[];portConstraint=eastwest;" vertex="1" parent="TMaaybb_ajbuhBKk-Kvd-108">
          <mxGeometry y="52" width="230" height="8" as="geometry" />
        </mxCell>
        <mxCell id="TMaaybb_ajbuhBKk-Kvd-111" value="+ getEmoState(): int&#xa;+ influenceOnState(Tunnel tunnel): int&#xa;+ saySth(): void&#xa;+ setEmoState(): void&#xa;+ step(Tunnel tunnel): void" style="text;strokeColor=none;fillColor=none;align=left;verticalAlign=top;spacingLeft=4;spacingRight=4;overflow=hidden;rotatable=0;points=[[0,0.5],[1,0.5]];portConstraint=eastwest;" vertex="1" parent="TMaaybb_ajbuhBKk-Kvd-108">
          <mxGeometry y="60" width="230" height="80" as="geometry" />
        </mxCell>
        <mxCell id="TMaaybb_ajbuhBKk-Kvd-112" value="Scientist" style="swimlane;fontStyle=1;align=center;verticalAlign=top;childLayout=stackLayout;horizontal=1;startSize=26;horizontalStack=0;resizeParent=1;resizeParentMax=0;resizeLast=0;collapsible=1;marginBottom=0;" vertex="1" parent="WIyWlLk6GJQsqaUBKTNV-1">
          <mxGeometry x="590" y="730" width="220" height="150" as="geometry" />
        </mxCell>
        <mxCell id="TMaaybb_ajbuhBKk-Kvd-113" value="#happy: int" style="text;strokeColor=none;fillColor=none;align=left;verticalAlign=top;spacingLeft=4;spacingRight=4;overflow=hidden;rotatable=0;points=[[0,0.5],[1,0.5]];portConstraint=eastwest;" vertex="1" parent="TMaaybb_ajbuhBKk-Kvd-112">
          <mxGeometry y="26" width="220" height="26" as="geometry" />
        </mxCell>
        <mxCell id="TMaaybb_ajbuhBKk-Kvd-114" value="" style="line;strokeWidth=1;fillColor=none;align=left;verticalAlign=middle;spacingTop=-1;spacingLeft=3;spacingRight=3;rotatable=0;labelPosition=right;points=[];portConstraint=eastwest;" vertex="1" parent="TMaaybb_ajbuhBKk-Kvd-112">
          <mxGeometry y="52" width="220" height="8" as="geometry" />
        </mxCell>
        <mxCell id="TMaaybb_ajbuhBKk-Kvd-115" value="+ count(Penguin pen):int&#xa;+ getHappy(): int&#xa;+ influenceOnHappy(Penguin pen): int&#xa;+ saySth(): void&#xa;+step(Tunnel tunnel): void" style="text;strokeColor=none;fillColor=none;align=left;verticalAlign=top;spacingLeft=4;spacingRight=4;overflow=hidden;rotatable=0;points=[[0,0.5],[1,0.5]];portConstraint=eastwest;" vertex="1" parent="TMaaybb_ajbuhBKk-Kvd-112">
          <mxGeometry y="60" width="220" height="90" as="geometry" />
        </mxCell>
        <mxCell id="TMaaybb_ajbuhBKk-Kvd-116" value="Student" style="swimlane;fontStyle=1;align=center;verticalAlign=top;childLayout=stackLayout;horizontal=1;startSize=26;horizontalStack=0;resizeParent=1;resizeParentMax=0;resizeLast=0;collapsible=1;marginBottom=0;" vertex="1" parent="WIyWlLk6GJQsqaUBKTNV-1">
          <mxGeometry x="470" y="500" width="220" height="170" as="geometry" />
        </mxCell>
        <mxCell id="TMaaybb_ajbuhBKk-Kvd-117" value="# speed: int" style="text;strokeColor=none;fillColor=none;align=left;verticalAlign=top;spacingLeft=4;spacingRight=4;overflow=hidden;rotatable=0;points=[[0,0.5],[1,0.5]];portConstraint=eastwest;" vertex="1" parent="TMaaybb_ajbuhBKk-Kvd-116">
          <mxGeometry y="26" width="220" height="26" as="geometry" />
        </mxCell>
        <mxCell id="TMaaybb_ajbuhBKk-Kvd-118" value="" style="line;strokeWidth=1;fillColor=none;align=left;verticalAlign=middle;spacingTop=-1;spacingLeft=3;spacingRight=3;rotatable=0;labelPosition=right;points=[];portConstraint=eastwest;" vertex="1" parent="TMaaybb_ajbuhBKk-Kvd-116">
          <mxGeometry y="52" width="220" height="8" as="geometry" />
        </mxCell>
        <mxCell id="TMaaybb_ajbuhBKk-Kvd-119" value="+ comeIntoGallery1(Brilliant brill): void&#xa;+ comeIntoGallery2(Stone stone): void&#xa;+ getSpeed(): int&#xa;+ influenceOnSpeed(): int&#xa;+ saySth(): void&#xa;+setSpeed(int sp): void&#xa;+ step(Tunnel tunnel): void" style="text;strokeColor=none;fillColor=none;align=left;verticalAlign=top;spacingLeft=4;spacingRight=4;overflow=hidden;rotatable=0;points=[[0,0.5],[1,0.5]];portConstraint=eastwest;" vertex="1" parent="TMaaybb_ajbuhBKk-Kvd-116">
          <mxGeometry y="60" width="220" height="110" as="geometry" />
        </mxCell>
        <mxCell id="TMaaybb_ajbuhBKk-Kvd-120" value="" style="endArrow=block;dashed=1;endFill=0;endSize=12;html=1;" edge="1" parent="WIyWlLk6GJQsqaUBKTNV-1">
          <mxGeometry width="160" relative="1" as="geometry">
            <mxPoint x="990" y="70" as="sourcePoint" />
            <mxPoint x="1150" y="160" as="targetPoint" />
          </mxGeometry>
        </mxCell>
        <mxCell id="TMaaybb_ajbuhBKk-Kvd-121" value="" style="endArrow=block;dashed=1;endFill=0;endSize=12;html=1;entryX=0.41;entryY=-0.003;entryDx=0;entryDy=0;entryPerimeter=0;" edge="1" parent="WIyWlLk6GJQsqaUBKTNV-1" target="TMaaybb_ajbuhBKk-Kvd-95">
          <mxGeometry width="160" relative="1" as="geometry">
            <mxPoint x="870" y="90" as="sourcePoint" />
            <mxPoint x="1030" y="180" as="targetPoint" />
          </mxGeometry>
        </mxCell>
        <mxCell id="TMaaybb_ajbuhBKk-Kvd-122" value="" style="endArrow=block;dashed=1;endFill=0;endSize=12;html=1;entryX=0.41;entryY=-0.003;entryDx=0;entryDy=0;entryPerimeter=0;" edge="1" parent="WIyWlLk6GJQsqaUBKTNV-1">
          <mxGeometry width="160" relative="1" as="geometry">
            <mxPoint x="1173.1" y="100" as="sourcePoint" />
            <mxPoint x="1176.9" y="168.90800000000013" as="targetPoint" />
          </mxGeometry>
        </mxCell>
        <mxCell id="TMaaybb_ajbuhBKk-Kvd-123" value="" style="endArrow=block;dashed=1;endFill=0;endSize=12;html=1;entryX=0.75;entryY=0;entryDx=0;entryDy=0;" edge="1" parent="WIyWlLk6GJQsqaUBKTNV-1" target="TMaaybb_ajbuhBKk-Kvd-95">
          <mxGeometry width="160" relative="1" as="geometry">
            <mxPoint x="1090" y="70" as="sourcePoint" />
            <mxPoint x="1093.8000000000006" y="138.90800000000013" as="targetPoint" />
          </mxGeometry>
        </mxCell>
        <mxCell id="TMaaybb_ajbuhBKk-Kvd-124" value="" style="endArrow=open;endFill=1;endSize=12;html=1;entryX=0.587;entryY=1.163;entryDx=0;entryDy=0;entryPerimeter=0;" edge="1" parent="WIyWlLk6GJQsqaUBKTNV-1" target="TMaaybb_ajbuhBKk-Kvd-45">
          <mxGeometry width="160" relative="1" as="geometry">
            <mxPoint x="190" y="290" as="sourcePoint" />
            <mxPoint x="350" y="290" as="targetPoint" />
          </mxGeometry>
        </mxCell>
      </root>
    </mxGraphModel>
  </diagram>
</mxfile>
